<svg xmlns="http://www.w3.org/2000/svg" width="430" height="430" style="width:100%;height:100%;transform:translate3d(0,0,0);content-visibility:visible" viewBox="0 0 430 430"><defs><clipPath id="c"><path d="M0 0h430v430H0z"/></clipPath><clipPath id="e"><path d="M0 0h430v430H0z"/></clipPath><clipPath id="d"><path d="M0 0h430v430H0z"/></clipPath><filter id="a" width="100%" height="100%" x="0%" y="0%" filterUnits="objectBoundingBox"><feComponentTransfer in="SourceGraphic"><feFuncA tableValues="1.0 0.0" type="table"/></feComponentTransfer></filter><mask id="f" mask-type="alpha"><g filter="url(#a)"><path fill="#fff" d="M0 0h430v430H0z" opacity="0"/><use xmlns:ns1="http://www.w3.org/1999/xlink" ns1:href="#b"/></g></mask><g id="b" style="display:none"><path/><path/></g></defs><g clip-path="url(#c)"><g clip-path="url(#d)" style="display:block"><path fill="#EBE6EF" d="M115 42.5h-230c-16.569 0-30-13.431-30-30v-55h290v55c0 16.569-13.431 30-30 30z" class="secondary" style="display:block" transform="translate(215 342.5)"/><path fill="#EBE6EF" d="M115 42.5h-230c-16.569 0-30-13.431-30-30v-55h290v55c0 16.569-13.431 30-30 30z" class="secondary" style="mix-blend-mode:multiply;display:block" transform="translate(215 342.5)"/><g opacity=".5" style="mix-blend-mode:multiply;display:block"><path fill="#EBE6EF" d="M100 385h23.411C115.328 379.625 110 370.435 110 360v-5h225c13.807 0 25-11.193 25-25v-30H70v55c0 16.569 13.431 30 30 30z" class="secondary" opacity="1"/></g><path fill="#EBE6EF" d="M-115-145c-16.569 0-30 13.431-30 30v230c0 16.569 13.431 30 30 30h230c16.569 0 30-13.431 30-30v-230c0-16.569-13.431-30-30-30h-230z" class="secondary" style="display:block" transform="translate(215 190)"/><g opacity=".5" style="mix-blend-mode:multiply;display:block"><path fill="#EBE6EF" d="M70 75c0-16.569 13.431-30 30-30h40c-16.569 0-30 13.431-30 30v230c0 16.569 13.431 30 30 30h-40c-16.569 0-30-13.431-30-30V75z" class="secondary" opacity="1"/></g><path fill="none" stroke="#3A3347" stroke-linecap="round" stroke-linejoin="round" stroke-width="7" d="M25.278 16.528v2.916C25.278 28.035 18.313 35 9.722 35H-9.722c-8.591 0-15.556-6.965-15.556-15.556v-38.888C-25.278-28.035-18.313-35-9.722-35H9.722c8.591 0 15.556 6.965 15.556 15.556v2.916" class="primary" style="display:block" transform="translate(286.47 190)"/><path fill="none" stroke="#3A3347" stroke-linecap="round" stroke-linejoin="round" stroke-width="7" d="M-25.208 19.488C-25.208 28.055-18.262 35-9.695 35h19.39c8.567 0 15.513-6.945 15.513-15.512v-4.072c0-8.567-6.946-15.513-15.513-15.513h-19.39c-8.567 0-15.513-6.945-15.513-15.512v-3.879C-25.208-28.055-18.262-35-9.695-35H8.726c8.567 0 15.512 6.945 15.512 15.512" class="primary" style="display:block" transform="translate(210.985 190)"/><path fill="none" stroke="#3A3347" stroke-linecap="round" stroke-linejoin="round" stroke-width="7" d="M-21.389 0 15.15.01M21.389 35h-42.778v-70h42.778" class="primary" style="display:block" transform="translate(143.389 190)"/></g><g clip-path="url(#e)" style="display:none"><path class="secondary" style="display:none"/><path class="secondary" style="mix-blend-mode:multiply;display:none"/><path class="secondary" style="mix-blend-mode:multiply;display:none"/><g style="display:none"><path class="secondary"/><path class="secondary"/></g><g mask="url(#f)" style="mix-blend-mode:multiply;display:none"><path class="secondary"/><path class="secondary"/></g><path class="secondary" style="display:none"/><path class="secondary" style="mix-blend-mode:multiply;display:none"/><g fill="none" style="display:none"><path class="primary"/><path class="primary"/></g><path fill="none" class="primary" style="display:none"/><g fill="none" style="display:none"><path class="primary"/><path class="primary"/></g></g></g></svg>